<mxfile host="app.diagrams.net" modified="2023-08-26T06:40:41.720Z" agent="Mozilla/5.0 (Windows NT 10.0; Win64; x64) AppleWebKit/537.36 (KHTML, like Gecko) Chrome/116.0.0.0 Safari/537.36" version="21.6.9" etag="fs1FTrwCVSslzp6nGbEM" type="github">
  <diagram name="Page-1" id="z2UweDDKiBCb2AuWsIdX">
    <mxGraphModel>
      <root>
        <mxCell id="0" />
        <mxCell id="1" parent="0" />
      </root>
    </mxGraphModel>
  </diagram>
</mxfile>
